<svg width="35" height="45" viewBox="0 0 35 45" fill="none" xmlns="http://www.w3.org/2000/svg">
<path d="M12.931 8.55282C12.931 14.3879 12.931 18.1119 6.89655 19.7889C0.862069 21.4659 0 14.3879 0 8.55282C0 2.7178 2.42114 0 6.89655 0C11.372 0 12.931 2.7178 12.931 8.55282Z" fill="#585C5D"/>
<path d="M2.86353 25.8137C2.40404 22.1738 2.91527 22.1913 6.90952 21.7142C10.9038 21.2372 11.7864 21.0532 12.2459 24.6932C12.7054 28.3332 12.1855 31.3905 8.19122 31.8676C4.19697 32.3446 3.32302 29.4537 2.86353 25.8137Z" fill="#585C5D"/>
<path d="M22.2414 21.6336C22.2414 27.4686 22.2414 31.1927 28.1954 32.8697C34.1494 34.5467 35 27.4686 35 21.6336C35 15.7986 32.6111 13.0808 28.1954 13.0808C23.7797 13.0808 22.2414 15.7986 22.2414 21.6336Z" fill="#585C5D"/>
<path d="M32.1365 38.8945C32.596 35.2545 32.0847 35.2721 28.0905 34.795C24.0962 34.318 23.2136 34.134 22.7541 37.774C22.2946 41.414 22.8145 44.4713 26.8088 44.9484C30.803 45.4254 31.677 42.5345 32.1365 38.8945Z" fill="#585C5D"/>
</svg>
